<svg viewBox="0 0 100 100" xmlns="http://www.w3.org/2000/svg">
    <polygon points="50,12 88,32 88,72 50,92 12,72 12,32" fill="#475569" stroke="#1e293b" stroke-width="2" stroke-linejoin="round"/>
    <polygon points="50,15 85,33 50,51 15,33" fill="#ffffff"/>
    <polygon points="15,33 50,51 50,88 15,70" fill="#f1f5f9"/>
    <!-- Capital stepped molding -->
    <polygon points="15,33 50,51 50,57 15,39" fill="#e2e8f0"/>
    <polygon points="18,52 47,67 47,88 18,73" fill="#cbd5e1"/>
    <polygon points="50,51 85,33 85,70 50,88" fill="#cbd5e1"/>
    <polygon points="50,51 85,33 85,39 50,57" fill="#94a3b8"/>
    <polygon points="53,67 82,52 82,73 53,88" fill="#94a3b8"/>
  </svg>