<svg viewBox="0 0 100 100" xmlns="http://www.w3.org/2000/svg">
    <polygon points="50,12 88,32 88,72 50,92 12,72 12,32" fill="#1e1b4b" stroke="#09090b" stroke-width="2" stroke-linejoin="round"/>
    <polygon points="50,15 85,33 50,51 15,33" fill="#52525b"/>
    <polygon points="15,33 50,51 50,88 15,70" fill="#27272a"/>
    <polygon points="15,33 50,51 50,57 15,39" fill="#52525b"/>
    <polygon points="15,64 50,82 50,88 15,70" fill="#52525b"/>
    <circle cx="28" cy="50" r="2.5" fill="#a1a1aa"/>
    <circle cx="38" cy="62" r="3" fill="#a1a1aa"/>
    <polygon points="50,51 85,33 85,70 50,88" fill="#18181b"/>
    <polygon points="50,51 85,33 85,39 50,57" fill="#52525b"/>
    <polygon points="50,82 85,64 85,70 50,88" fill="#52525b"/>
    <circle cx="68" cy="50" r="2.5" fill="#71717a"/>
  </svg>