<svg viewBox="0 0 100 100" xmlns="http://www.w3.org/2000/svg">
    <polygon points="50,12 88,32 88,72 50,92 12,72 12,32" fill="#991b1b" stroke="#7f1d1d" stroke-width="2" stroke-linejoin="round"/>
    <polygon points="50,15 85,33 50,51 15,33" fill="#ef4444"/>
    <polygon points="15,33 50,51 50,88 15,70" fill="#dc2626"/>
    <path d="M 15,52 L 50,70 L 50,88 L 15,70 Z" fill="#f8fafc"/>
    <line x1="15" y1="52" x2="50" y2="70" stroke="#0f172a" stroke-width="3"/>
    <circle cx="32.5" cy="61" r="5" fill="#f8fafc" stroke="#0f172a" stroke-width="2"/>
    <circle cx="32.5" cy="61" r="2" fill="#e2e8f0"/>
    <polygon points="50,51 85,33 85,70 50,88" fill="#b91c1c"/>
    <path d="M 50,70 L 85,52 L 85,70 L 50,88 Z" fill="#e2e8f0"/>
    <line x1="50" y1="70" x2="85" y2="52" stroke="#0f172a" stroke-width="3"/>
    <circle cx="67.5" cy="61" r="5" fill="#f8fafc" stroke="#0f172a" stroke-width="2"/>
    <circle cx="67.5" cy="61" r="2" fill="#cbd5e1"/>
  </svg>