<svg viewBox="0 0 100 100" xmlns="http://www.w3.org/2000/svg">
    <polygon points="50,12 88,32 88,72 50,92 12,72 12,32" fill="#78350f" stroke="#451a03" stroke-width="2" stroke-linejoin="round"/>
    <!-- Gold inlaid top tile -->
    <polygon points="50,15 85,33 50,51 15,33" fill="#f8fafc"/>
    <polygon points="50,22 72,33 50,44 28,33" fill="#fef08a" stroke="#ca8a04" stroke-width="1.5"/>
    <polygon points="15,33 50,51 50,88 15,70" fill="#ffffff"/>
    <!-- Gold band around waist -->
    <polygon points="15,45 50,63 50,73 15,55" fill="#d97706"/>
    <circle cx="32" cy="59" r="3" fill="#fef08a"/>
    <polygon points="50,51 85,33 85,70 50,88" fill="#f1f5f9"/>
    <polygon points="50,63 85,45 85,55 50,73" fill="#b45309"/>
    <circle cx="68" cy="59" r="3" fill="#fef08a"/>
  </svg>