<svg viewBox="0 0 100 100" xmlns="http://www.w3.org/2000/svg">
    <polygon points="50,12 88,32 88,72 50,92 12,72 12,32" fill="#67e8f9" stroke="#22d3ee" stroke-width="2" stroke-linejoin="round"/>
    <polygon points="50,15 85,33 50,51 15,33" fill="#e0f2fe"/>
    <polygon points="15,33 50,51 50,88 15,70" fill="#bae6fd"/>
    <polygon points="50,51 85,33 85,70 50,88" fill="#7dd3fc"/>
    <!-- Coral branches and bubbles in pastel -->
    <path d="M 22,70 Q 24,55 30,52 Q 35,45 32,38 M 30,52 Q 38,50 42,42" stroke="#f472b6" stroke-width="3" fill="none" stroke-linecap="round"/>
    <circle cx="25" cy="46" r="3" fill="#fb923c"/>
    <path d="M 58,72 Q 62,58 70,55 Q 75,48 72,40 M 70,55 Q 78,52 82,45" stroke="#f472b6" stroke-width="3" fill="none" stroke-linecap="round"/>
    <circle cx="64" cy="50" r="3" fill="#facc15"/>
  </svg>