<svg viewBox="0 0 100 100" xmlns="http://www.w3.org/2000/svg">
    <polygon points="50,12 88,32 88,72 50,92 12,72 12,32" fill="#334155" stroke="#0f172a" stroke-width="2" stroke-linejoin="round"/>
    <polygon points="50,15 85,33 50,51 15,33" fill="#94a3b8"/>
    <polygon points="15,33 50,51 50,88 15,70" fill="#64748b"/>
    <!-- Junk metal shards, wires and plates -->
    <line x1="18" y1="40" x2="48" y2="80" stroke="#f59e0b" stroke-width="2"/>
    <line x1="15" y1="65" x2="45" y2="45" stroke="#22c55e" stroke-width="2"/>
    <polygon points="22,48 35,42 38,58 25,64" fill="#ef4444" opacity="0.8"/>
    <polygon points="50,51 85,33 85,70 50,88" fill="#475569"/>
    <line x1="52" y1="45" x2="82" y2="65" stroke="#3b82f6" stroke-width="2"/>
    <polygon points="58,58 72,52 75,68 62,74" fill="#a855f7" opacity="0.8"/>
  </svg>