<svg viewBox="0 0 100 100" xmlns="http://www.w3.org/2000/svg">
    <polygon points="50,12 88,32 88,72 50,92 12,72 12,32" fill="#713f12" stroke="#451a03" stroke-width="2" stroke-linejoin="round"/>
    <polygon points="50,15 85,33 50,51 15,33" fill="#ffffff"/>
    <polygon points="15,33 50,51 50,88 15,70" fill="#fef08a"/>
    <path d="M 15,46 Q 32,54 50,50 M 15,68 Q 32,76 50,72" stroke="#ca8a04" stroke-width="2" fill="none"/>
    <polygon points="50,51 85,33 85,70 50,88" fill="#fde047"/>
    <path d="M 50,50 Q 68,44 85,48 M 50,72 Q 68,66 85,70" stroke="#a16207" stroke-width="2" fill="none"/>
  </svg>