<svg viewBox="0 0 100 100" xmlns="http://www.w3.org/2000/svg">
    <polygon points="50,12 88,32 88,72 50,92 12,72 12,32" fill="#64748b" stroke="#475569" stroke-width="2" stroke-linejoin="round"/>
    <polygon points="50,15 85,33 50,51 15,33" fill="#ffffff"/>
    <polygon points="15,33 50,51 50,88 15,70" fill="#f8fafc"/>
    <polygon points="50,51 85,33 85,70 50,88" fill="#e2e8f0"/>
    <!-- Helm / Ship wheel etched lines -->
    <circle cx="32" cy="58" r="8" fill="none" stroke="#71717a" stroke-width="1.5"/>
    <path d="M 32,46 L 32,70 M 20,58 L 44,58 M 24,50 L 40,66 M 24,66 L 40,50" stroke="#71717a" stroke-width="1.5"/>
    <path d="M 68,48 L 68,68 M 60,60 Q 68,70 76,60" stroke="#71717a" stroke-width="2" fill="none"/>
    <circle cx="68" cy="47" r="2.5" fill="none" stroke="#71717a" stroke-width="1.5"/>
  </svg>