<svg viewBox="0 0 100 100" xmlns="http://www.w3.org/2000/svg">
    <polygon points="50,12 88,32 88,72 50,92 12,72 12,32" fill="#450a0a" stroke="#1c1917" stroke-width="2" stroke-linejoin="round"/>
    <polygon points="50,15 85,33 50,51 15,33" fill="#7f1d1d"/>
    <!-- Wood grain reflection top -->
    <polygon points="15,33 50,51 50,88 15,70" fill="#b91c1c"/>
    <line x1="20" y1="40" x2="20" y2="65" stroke="#ef4444" stroke-width="1.5" opacity="0.6"/>
    <line x1="32" y1="45" x2="32" y2="75" stroke="#7f1d1d" stroke-width="2" opacity="0.8"/>
    <line x1="42" y1="50" x2="42" y2="82" stroke="#ef4444" stroke-width="1.5" opacity="0.5"/>
    <polygon points="50,51 85,33 85,70 50,88" fill="#991b1b"/>
    <line x1="58" y1="50" x2="58" y2="82" stroke="#7f1d1d" stroke-width="2" opacity="0.8"/>
    <line x1="68" y1="45" x2="68" y2="75" stroke="#ef4444" stroke-width="1.5" opacity="0.4"/>
    <line x1="78" y1="40" x2="78" y2="65" stroke="#7f1d1d" stroke-width="1.5" opacity="0.8"/>
  </svg>